<svg viewBox="0 0 1120 544"  version="1.1" xmlns="http://www.w3.org/2000/svg">
<g id="qubit_lines">
<path id="qubit_line:0" d="M64,64 L1088,64 " stroke="black"/>
<text dominant-baseline="central" text-anchor="end" font-family="monospace" font-size="12" x="64" y="64">q0</text>
<path id="qubit_line:1" d="M64,128 L1088,128 " stroke="black"/>
<text dominant-baseline="central" text-anchor="end" font-family="monospace" font-size="12" x="64" y="128">q1</text>
<path id="qubit_line:2" d="M64,192 L1088,192 " stroke="black"/>
<text dominant-baseline="central" text-anchor="end" font-family="monospace" font-size="12" x="64" y="192">q2</text>
<path id="qubit_line:3" d="M64,256 L1088,256 " stroke="black"/>
<text dominant-baseline="central" text-anchor="end" font-family="monospace" font-size="12" x="64" y="256">q3</text>
<path id="qubit_line:4" d="M64,320 L1088,320 " stroke="black"/>
<text dominant-baseline="central" text-anchor="end" font-family="monospace" font-size="12" x="64" y="320">q4</text>
<path id="qubit_line:5" d="M64,384 L1088,384 " stroke="black"/>
<text dominant-baseline="central" text-anchor="end" font-family="monospace" font-size="12" x="64" y="384">q5</text>
<path id="qubit_line:6" d="M64,448 L1088,448 " stroke="black"/>
<text dominant-baseline="central" text-anchor="end" font-family="monospace" font-size="12" x="64" y="448">q6</text>
</g>
<rect x="80" y="48" width="32" height="32" stroke="black" fill="white"/>
<text dominant-baseline="central" text-anchor="middle" font-family="monospace" font-size="24" x="96" y="64">√Y</text>
<rect x="80" y="112" width="32" height="32" stroke="black" fill="white"/>
<text dominant-baseline="central" text-anchor="middle" font-family="monospace" font-size="24" x="96" y="128">√Y</text>
<rect x="80" y="176" width="32" height="32" stroke="black" fill="white"/>
<text dominant-baseline="central" text-anchor="middle" font-family="monospace" font-size="24" x="96" y="192">√Y</text>
<rect x="80" y="240" width="32" height="32" stroke="black" fill="white"/>
<text dominant-baseline="central" text-anchor="middle" font-family="monospace" font-size="24" x="96" y="256">√Y</text>
<rect x="144" y="368" width="32" height="32" stroke="black" fill="white"/>
<text dominant-baseline="central" text-anchor="middle" font-family="monospace" font-size="18" x="160" y="384">√Y<tspan baseline-shift="super" font-size="14">†</tspan></text>
<path d="M224,64 L224,384 " stroke="black"/>
<circle cx="224" cy="64" r="12" stroke="none" fill="black"/>
<circle cx="224" cy="384" r="12" stroke="none" fill="black"/>
<path d="M288,128 L288,384 " stroke="black"/>
<circle cx="288" cy="128" r="12" stroke="none" fill="black"/>
<circle cx="288" cy="384" r="12" stroke="none" fill="black"/>
<path d="M352,192 L352,384 " stroke="black"/>
<circle cx="352" cy="192" r="12" stroke="none" fill="black"/>
<circle cx="352" cy="384" r="12" stroke="none" fill="black"/>
<path d="M416,256 L416,384 " stroke="black"/>
<circle cx="416" cy="256" r="12" stroke="none" fill="black"/>
<circle cx="416" cy="384" r="12" stroke="none" fill="black"/>
<rect x="464" y="368" width="32" height="32" stroke="black" fill="white"/>
<text dominant-baseline="central" text-anchor="middle" font-family="monospace" font-size="24" x="480" y="384">√Y</text>
<rect x="528" y="48" width="32" height="32" stroke="black" fill="white"/>
<text dominant-baseline="central" text-anchor="middle" font-family="monospace" font-size="18" x="544" y="64">√Y<tspan baseline-shift="super" font-size="14">†</tspan></text>
<rect x="528" y="112" width="32" height="32" stroke="black" fill="white"/>
<text dominant-baseline="central" text-anchor="middle" font-family="monospace" font-size="18" x="544" y="128">√Y<tspan baseline-shift="super" font-size="14">†</tspan></text>
<rect x="528" y="176" width="32" height="32" stroke="black" fill="white"/>
<text dominant-baseline="central" text-anchor="middle" font-family="monospace" font-size="18" x="544" y="192">√Y<tspan baseline-shift="super" font-size="14">†</tspan></text>
<rect x="528" y="240" width="32" height="32" stroke="black" fill="white"/>
<text dominant-baseline="central" text-anchor="middle" font-family="monospace" font-size="18" x="544" y="256">√Y<tspan baseline-shift="super" font-size="14">†</tspan></text>
<rect x="592" y="368" width="32" height="32" stroke="black" fill="black"/>
<text dominant-baseline="central" text-anchor="middle" font-family="monospace" font-size="30" x="608" y="384" fill="white">M</text>
<text text-anchor="middle" font-family="monospace" font-size="8" x="608" y="364">rec[0]</text>
<rect x="656" y="304" width="32" height="32" stroke="black" fill="white"/>
<text dominant-baseline="central" text-anchor="middle" font-family="monospace" font-size="18" x="672" y="320">√Y<tspan baseline-shift="super" font-size="14">†</tspan></text>
<rect x="656" y="432" width="32" height="32" stroke="black" fill="white"/>
<text dominant-baseline="central" text-anchor="middle" font-family="monospace" font-size="18" x="672" y="448">√Y<tspan baseline-shift="super" font-size="14">†</tspan></text>
<path d="M736,192 L736,320 " stroke="black"/>
<circle cx="736" cy="192" r="12" stroke="none" fill="black"/>
<circle cx="736" cy="320" r="12" stroke="none" fill="black"/>
<path d="M800,128 L800,448 " stroke="black"/>
<circle cx="800" cy="128" r="12" stroke="none" fill="black"/>
<circle cx="800" cy="448" r="12" stroke="none" fill="black"/>
<path d="M708,40 L708,32 L828,32 L828,40 " stroke="black" fill="none"/>
<path d="M708,504 L708,512 L828,512 L828,504 " stroke="black" fill="none"/>
<path d="M864,64 L864,320 " stroke="black"/>
<circle cx="864" cy="64" r="12" stroke="none" fill="black"/>
<circle cx="864" cy="320" r="12" stroke="none" fill="black"/>
<path d="M928,256 L928,448 " stroke="black"/>
<circle cx="928" cy="256" r="12" stroke="none" fill="black"/>
<circle cx="928" cy="448" r="12" stroke="none" fill="black"/>
<path d="M836,40 L836,32 L956,32 L956,40 " stroke="black" fill="none"/>
<path d="M836,504 L836,512 L956,512 L956,504 " stroke="black" fill="none"/>
<rect x="976" y="304" width="32" height="32" stroke="black" fill="white"/>
<text dominant-baseline="central" text-anchor="middle" font-family="monospace" font-size="24" x="992" y="320">√Y</text>
<rect x="976" y="432" width="32" height="32" stroke="black" fill="white"/>
<text dominant-baseline="central" text-anchor="middle" font-family="monospace" font-size="24" x="992" y="448">√Y</text>
<rect x="1040" y="304" width="32" height="32" stroke="black" fill="black"/>
<text dominant-baseline="central" text-anchor="middle" font-family="monospace" font-size="30" x="1056" y="320" fill="white">M</text>
<text text-anchor="middle" font-family="monospace" font-size="8" x="1056" y="300">rec[1]</text>
<rect x="1040" y="432" width="32" height="32" stroke="black" fill="black"/>
<text dominant-baseline="central" text-anchor="middle" font-family="monospace" font-size="30" x="1056" y="448" fill="white">M</text>
<text text-anchor="middle" font-family="monospace" font-size="8" x="1056" y="428">rec[2]</text>
</svg>