<svg viewBox="0 0 2339.2 688"  version="1.1" xmlns="http://www.w3.org/2000/svg">
<g id="qubit_dots">
<circle id="qubit_dot:0:0" cx="80" cy="80" r="2" stroke="none" fill="black"/>
<circle id="qubit_dot:1:0" cx="144" cy="80" r="2" stroke="none" fill="black"/>
<circle id="qubit_dot:2:0" cx="208" cy="80" r="2" stroke="none" fill="black"/>
<circle id="qubit_dot:3:0" cx="272" cy="80" r="2" stroke="none" fill="black"/>
<circle id="qubit_dot:4:0" cx="336" cy="80" r="2" stroke="none" fill="black"/>
<circle id="qubit_dot:5:0" cx="400" cy="80" r="2" stroke="none" fill="black"/>
<circle id="qubit_dot:6:0" cx="464" cy="80" r="2" stroke="none" fill="black"/>
<circle id="qubit_dot:0:0" cx="80" cy="256" r="2" stroke="none" fill="black"/>
<circle id="qubit_dot:1:0" cx="144" cy="256" r="2" stroke="none" fill="black"/>
<circle id="qubit_dot:2:0" cx="208" cy="256" r="2" stroke="none" fill="black"/>
<circle id="qubit_dot:3:0" cx="272" cy="256" r="2" stroke="none" fill="black"/>
<circle id="qubit_dot:4:0" cx="336" cy="256" r="2" stroke="none" fill="black"/>
<circle id="qubit_dot:5:0" cx="400" cy="256" r="2" stroke="none" fill="black"/>
<circle id="qubit_dot:6:0" cx="464" cy="256" r="2" stroke="none" fill="black"/>
<circle id="qubit_dot:0:0" cx="80" cy="432" r="2" stroke="none" fill="black"/>
<circle id="qubit_dot:1:0" cx="144" cy="432" r="2" stroke="none" fill="black"/>
<circle id="qubit_dot:2:0" cx="208" cy="432" r="2" stroke="none" fill="black"/>
<circle id="qubit_dot:3:0" cx="272" cy="432" r="2" stroke="none" fill="black"/>
<circle id="qubit_dot:4:0" cx="336" cy="432" r="2" stroke="none" fill="black"/>
<circle id="qubit_dot:5:0" cx="400" cy="432" r="2" stroke="none" fill="black"/>
<circle id="qubit_dot:6:0" cx="464" cy="432" r="2" stroke="none" fill="black"/>
<circle id="qubit_dot:0:0" cx="80" cy="608" r="2" stroke="none" fill="black"/>
<circle id="qubit_dot:1:0" cx="144" cy="608" r="2" stroke="none" fill="black"/>
<circle id="qubit_dot:2:0" cx="208" cy="608" r="2" stroke="none" fill="black"/>
<circle id="qubit_dot:3:0" cx="272" cy="608" r="2" stroke="none" fill="black"/>
<circle id="qubit_dot:4:0" cx="336" cy="608" r="2" stroke="none" fill="black"/>
<circle id="qubit_dot:5:0" cx="400" cy="608" r="2" stroke="none" fill="black"/>
<circle id="qubit_dot:6:0" cx="464" cy="608" r="2" stroke="none" fill="black"/>
<circle id="qubit_dot:0:1" cx="678.4" cy="80" r="2" stroke="none" fill="black"/>
<circle id="qubit_dot:1:1" cx="742.4" cy="80" r="2" stroke="none" fill="black"/>
<circle id="qubit_dot:2:1" cx="806.4" cy="80" r="2" stroke="none" fill="black"/>
<circle id="qubit_dot:3:1" cx="870.4" cy="80" r="2" stroke="none" fill="black"/>
<circle id="qubit_dot:4:1" cx="934.4" cy="80" r="2" stroke="none" fill="black"/>
<circle id="qubit_dot:5:1" cx="998.4" cy="80" r="2" stroke="none" fill="black"/>
<circle id="qubit_dot:6:1" cx="1062.4" cy="80" r="2" stroke="none" fill="black"/>
<circle id="qubit_dot:0:1" cx="678.4" cy="256" r="2" stroke="none" fill="black"/>
<circle id="qubit_dot:1:1" cx="742.4" cy="256" r="2" stroke="none" fill="black"/>
<circle id="qubit_dot:2:1" cx="806.4" cy="256" r="2" stroke="none" fill="black"/>
<circle id="qubit_dot:3:1" cx="870.4" cy="256" r="2" stroke="none" fill="black"/>
<circle id="qubit_dot:4:1" cx="934.4" cy="256" r="2" stroke="none" fill="black"/>
<circle id="qubit_dot:5:1" cx="998.4" cy="256" r="2" stroke="none" fill="black"/>
<circle id="qubit_dot:6:1" cx="1062.4" cy="256" r="2" stroke="none" fill="black"/>
<circle id="qubit_dot:0:1" cx="678.4" cy="432" r="2" stroke="none" fill="black"/>
<circle id="qubit_dot:1:1" cx="742.4" cy="432" r="2" stroke="none" fill="black"/>
<circle id="qubit_dot:2:1" cx="806.4" cy="432" r="2" stroke="none" fill="black"/>
<circle id="qubit_dot:3:1" cx="870.4" cy="432" r="2" stroke="none" fill="black"/>
<circle id="qubit_dot:4:1" cx="934.4" cy="432" r="2" stroke="none" fill="black"/>
<circle id="qubit_dot:5:1" cx="998.4" cy="432" r="2" stroke="none" fill="black"/>
<circle id="qubit_dot:6:1" cx="1062.4" cy="432" r="2" stroke="none" fill="black"/>
<circle id="qubit_dot:0:1" cx="678.4" cy="608" r="2" stroke="none" fill="black"/>
<circle id="qubit_dot:1:1" cx="742.4" cy="608" r="2" stroke="none" fill="black"/>
<circle id="qubit_dot:2:1" cx="806.4" cy="608" r="2" stroke="none" fill="black"/>
<circle id="qubit_dot:3:1" cx="870.4" cy="608" r="2" stroke="none" fill="black"/>
<circle id="qubit_dot:4:1" cx="934.4" cy="608" r="2" stroke="none" fill="black"/>
<circle id="qubit_dot:5:1" cx="998.4" cy="608" r="2" stroke="none" fill="black"/>
<circle id="qubit_dot:6:1" cx="1062.4" cy="608" r="2" stroke="none" fill="black"/>
<circle id="qubit_dot:0:2" cx="1276.8" cy="80" r="2" stroke="none" fill="black"/>
<circle id="qubit_dot:1:2" cx="1340.8" cy="80" r="2" stroke="none" fill="black"/>
<circle id="qubit_dot:2:2" cx="1404.8" cy="80" r="2" stroke="none" fill="black"/>
<circle id="qubit_dot:3:2" cx="1468.8" cy="80" r="2" stroke="none" fill="black"/>
<circle id="qubit_dot:4:2" cx="1532.8" cy="80" r="2" stroke="none" fill="black"/>
<circle id="qubit_dot:5:2" cx="1596.8" cy="80" r="2" stroke="none" fill="black"/>
<circle id="qubit_dot:6:2" cx="1660.8" cy="80" r="2" stroke="none" fill="black"/>
<circle id="qubit_dot:0:2" cx="1276.8" cy="256" r="2" stroke="none" fill="black"/>
<circle id="qubit_dot:1:2" cx="1340.8" cy="256" r="2" stroke="none" fill="black"/>
<circle id="qubit_dot:2:2" cx="1404.8" cy="256" r="2" stroke="none" fill="black"/>
<circle id="qubit_dot:3:2" cx="1468.8" cy="256" r="2" stroke="none" fill="black"/>
<circle id="qubit_dot:4:2" cx="1532.8" cy="256" r="2" stroke="none" fill="black"/>
<circle id="qubit_dot:5:2" cx="1596.8" cy="256" r="2" stroke="none" fill="black"/>
<circle id="qubit_dot:6:2" cx="1660.8" cy="256" r="2" stroke="none" fill="black"/>
<circle id="qubit_dot:0:2" cx="1276.8" cy="432" r="2" stroke="none" fill="black"/>
<circle id="qubit_dot:1:2" cx="1340.8" cy="432" r="2" stroke="none" fill="black"/>
<circle id="qubit_dot:2:2" cx="1404.8" cy="432" r="2" stroke="none" fill="black"/>
<circle id="qubit_dot:3:2" cx="1468.8" cy="432" r="2" stroke="none" fill="black"/>
<circle id="qubit_dot:4:2" cx="1532.8" cy="432" r="2" stroke="none" fill="black"/>
<circle id="qubit_dot:5:2" cx="1596.8" cy="432" r="2" stroke="none" fill="black"/>
<circle id="qubit_dot:6:2" cx="1660.8" cy="432" r="2" stroke="none" fill="black"/>
<circle id="qubit_dot:0:3" cx="1875.2" cy="80" r="2" stroke="none" fill="black"/>
<circle id="qubit_dot:1:3" cx="1939.2" cy="80" r="2" stroke="none" fill="black"/>
<circle id="qubit_dot:2:3" cx="2003.2" cy="80" r="2" stroke="none" fill="black"/>
<circle id="qubit_dot:3:3" cx="2067.2" cy="80" r="2" stroke="none" fill="black"/>
<circle id="qubit_dot:4:3" cx="2131.2" cy="80" r="2" stroke="none" fill="black"/>
<circle id="qubit_dot:5:3" cx="2195.2" cy="80" r="2" stroke="none" fill="black"/>
<circle id="qubit_dot:6:3" cx="2259.2" cy="80" r="2" stroke="none" fill="black"/>
<circle id="qubit_dot:0:3" cx="1875.2" cy="256" r="2" stroke="none" fill="black"/>
<circle id="qubit_dot:1:3" cx="1939.2" cy="256" r="2" stroke="none" fill="black"/>
<circle id="qubit_dot:2:3" cx="2003.2" cy="256" r="2" stroke="none" fill="black"/>
<circle id="qubit_dot:3:3" cx="2067.2" cy="256" r="2" stroke="none" fill="black"/>
<circle id="qubit_dot:4:3" cx="2131.2" cy="256" r="2" stroke="none" fill="black"/>
<circle id="qubit_dot:5:3" cx="2195.2" cy="256" r="2" stroke="none" fill="black"/>
<circle id="qubit_dot:6:3" cx="2259.2" cy="256" r="2" stroke="none" fill="black"/>
<circle id="qubit_dot:0:3" cx="1875.2" cy="432" r="2" stroke="none" fill="black"/>
<circle id="qubit_dot:1:3" cx="1939.2" cy="432" r="2" stroke="none" fill="black"/>
<circle id="qubit_dot:2:3" cx="2003.2" cy="432" r="2" stroke="none" fill="black"/>
<circle id="qubit_dot:3:3" cx="2067.2" cy="432" r="2" stroke="none" fill="black"/>
<circle id="qubit_dot:4:3" cx="2131.2" cy="432" r="2" stroke="none" fill="black"/>
<circle id="qubit_dot:5:3" cx="2195.2" cy="432" r="2" stroke="none" fill="black"/>
<circle id="qubit_dot:6:3" cx="2259.2" cy="432" r="2" stroke="none" fill="black"/>
</g>
<rect x="64" y="64" width="32" height="32" stroke="black" fill="white"/>
<text dominant-baseline="central" text-anchor="middle" font-family="monospace" font-size="24" x="80" y="80">√Y</text>
<rect x="128" y="64" width="32" height="32" stroke="black" fill="white"/>
<text dominant-baseline="central" text-anchor="middle" font-family="monospace" font-size="24" x="144" y="80">√Y</text>
<rect x="192" y="64" width="32" height="32" stroke="black" fill="white"/>
<text dominant-baseline="central" text-anchor="middle" font-family="monospace" font-size="24" x="208" y="80">√Y</text>
<rect x="256" y="64" width="32" height="32" stroke="black" fill="white"/>
<text dominant-baseline="central" text-anchor="middle" font-family="monospace" font-size="24" x="272" y="80">√Y</text>
<rect x="982.4" y="64" width="32" height="32" stroke="black" fill="white"/>
<text dominant-baseline="central" text-anchor="middle" font-family="monospace" font-size="18" x="998.4" y="80">√Y<tspan baseline-shift="super" font-size="14">†</tspan></text>
<path d="M1276.8,80 C1340.8 144,1532.8 144,1596.8 80 " fill="none" stroke="black" stroke-width="5"/>
<circle cx="1276.8" cy="80" r="12" stroke="none" fill="black"/>
<circle cx="1596.8" cy="80" r="12" stroke="none" fill="black"/>
<path d="M1939.2,80 C1990.4 131.2,2144 131.2,2195.2 80 " fill="none" stroke="black" stroke-width="5"/>
<circle cx="1939.2" cy="80" r="12" stroke="none" fill="black"/>
<circle cx="2195.2" cy="80" r="12" stroke="none" fill="black"/>
<path d="M208,256 C246.4 294.4,361.6 294.4,400 256 " fill="none" stroke="black" stroke-width="5"/>
<circle cx="208" cy="256" r="12" stroke="none" fill="black"/>
<circle cx="400" cy="256" r="12" stroke="none" fill="black"/>
<path d="M870.4,256 C896 281.6,972.8 281.6,998.4 256 " fill="none" stroke="black" stroke-width="5"/>
<circle cx="870.4" cy="256" r="12" stroke="none" fill="black"/>
<circle cx="998.4" cy="256" r="12" stroke="none" fill="black"/>
<rect x="1580.8" y="240" width="32" height="32" stroke="black" fill="white"/>
<text dominant-baseline="central" text-anchor="middle" font-family="monospace" font-size="24" x="1596.8" y="256">√Y</text>
<rect x="1859.2" y="240" width="32" height="32" stroke="black" fill="white"/>
<text dominant-baseline="central" text-anchor="middle" font-family="monospace" font-size="18" x="1875.2" y="256">√Y<tspan baseline-shift="super" font-size="14">†</tspan></text>
<rect x="1923.2" y="240" width="32" height="32" stroke="black" fill="white"/>
<text dominant-baseline="central" text-anchor="middle" font-family="monospace" font-size="18" x="1939.2" y="256">√Y<tspan baseline-shift="super" font-size="14">†</tspan></text>
<rect x="1987.2" y="240" width="32" height="32" stroke="black" fill="white"/>
<text dominant-baseline="central" text-anchor="middle" font-family="monospace" font-size="18" x="2003.2" y="256">√Y<tspan baseline-shift="super" font-size="14">†</tspan></text>
<rect x="2051.2" y="240" width="32" height="32" stroke="black" fill="white"/>
<text dominant-baseline="central" text-anchor="middle" font-family="monospace" font-size="18" x="2067.2" y="256">√Y<tspan baseline-shift="super" font-size="14">†</tspan></text>
<rect x="384" y="416" width="32" height="32" stroke="black" fill="black"/>
<text dominant-baseline="central" text-anchor="middle" font-family="monospace" font-size="30" x="400" y="432" fill="white">M</text>
<rect x="918.4" y="416" width="32" height="32" stroke="black" fill="white"/>
<text dominant-baseline="central" text-anchor="middle" font-family="monospace" font-size="18" x="934.4" y="432">√Y<tspan baseline-shift="super" font-size="14">†</tspan></text>
<rect x="1046.4" y="416" width="32" height="32" stroke="black" fill="white"/>
<text dominant-baseline="central" text-anchor="middle" font-family="monospace" font-size="18" x="1062.4" y="432">√Y<tspan baseline-shift="super" font-size="14">†</tspan></text>
<path d="M1404.8,432 C1430.4 457.6,1507.2 457.6,1532.8 432 " fill="none" stroke="black" stroke-width="5"/>
<circle cx="1404.8" cy="432" r="12" stroke="none" fill="black"/>
<circle cx="1532.8" cy="432" r="12" stroke="none" fill="black"/>
<path d="M1340.8,432 C1404.8 496,1596.8 496,1660.8 432 " fill="none" stroke="black" stroke-width="5"/>
<circle cx="1340.8" cy="432" r="12" stroke="none" fill="black"/>
<circle cx="1660.8" cy="432" r="12" stroke="none" fill="black"/>
<path d="M1875.2,432 C1926.4 483.2,2080 483.2,2131.2 432 " fill="none" stroke="black" stroke-width="5"/>
<circle cx="1875.2" cy="432" r="12" stroke="none" fill="black"/>
<circle cx="2131.2" cy="432" r="12" stroke="none" fill="black"/>
<path d="M2067.2,432 C2105.6 470.4,2220.8 470.4,2259.2 432 " fill="none" stroke="black" stroke-width="5"/>
<circle cx="2067.2" cy="432" r="12" stroke="none" fill="black"/>
<circle cx="2259.2" cy="432" r="12" stroke="none" fill="black"/>
<rect x="320" y="592" width="32" height="32" stroke="black" fill="white"/>
<text dominant-baseline="central" text-anchor="middle" font-family="monospace" font-size="24" x="336" y="608">√Y</text>
<rect x="448" y="592" width="32" height="32" stroke="black" fill="white"/>
<text dominant-baseline="central" text-anchor="middle" font-family="monospace" font-size="24" x="464" y="608">√Y</text>
<rect x="918.4" y="592" width="32" height="32" stroke="black" fill="black"/>
<text dominant-baseline="central" text-anchor="middle" font-family="monospace" font-size="30" x="934.4" y="608" fill="white">M</text>
<rect x="1046.4" y="592" width="32" height="32" stroke="black" fill="black"/>
<text dominant-baseline="central" text-anchor="middle" font-family="monospace" font-size="30" x="1062.4" y="608" fill="white">M</text>
<g id="tick_borders">
<text dominant-baseline="hanging" text-anchor="middle" font-family="serif" font-size="18" transform="rotate(90)" x="80" y="-538">Tick 0</text>
<rect id="tick_border:0:0_0:0" x="0" y="0" width="544" height="160" stroke="black" fill="none"/>
<text dominant-baseline="hanging" text-anchor="middle" font-family="serif" font-size="18" transform="rotate(90)" x="80" y="-1136.4">Tick 1</text>
<rect id="tick_border:1:0_1:1" x="598.4" y="0" width="544" height="160" stroke="black" fill="none"/>
<text dominant-baseline="hanging" text-anchor="middle" font-family="serif" font-size="18" transform="rotate(90)" x="80" y="-1734.8">Tick 2</text>
<rect id="tick_border:2:0_2:2" x="1196.8" y="0" width="544" height="160" stroke="black" fill="none"/>
<text dominant-baseline="hanging" text-anchor="middle" font-family="serif" font-size="18" transform="rotate(90)" x="80" y="-2333.2">Tick 3</text>
<rect id="tick_border:3:0_3:3" x="1795.2" y="0" width="544" height="160" stroke="black" fill="none"/>
<text dominant-baseline="hanging" text-anchor="middle" font-family="serif" font-size="18" transform="rotate(90)" x="256" y="-538">Tick 4</text>
<rect id="tick_border:4:1_0:4" x="0" y="176" width="544" height="160" stroke="black" fill="none"/>
<text dominant-baseline="hanging" text-anchor="middle" font-family="serif" font-size="18" transform="rotate(90)" x="256" y="-1136.4">Tick 5</text>
<rect id="tick_border:5:1_1:5" x="598.4" y="176" width="544" height="160" stroke="black" fill="none"/>
<text dominant-baseline="hanging" text-anchor="middle" font-family="serif" font-size="18" transform="rotate(90)" x="256" y="-1734.8">Tick 6</text>
<rect id="tick_border:6:1_2:6" x="1196.8" y="176" width="544" height="160" stroke="black" fill="none"/>
<text dominant-baseline="hanging" text-anchor="middle" font-family="serif" font-size="18" transform="rotate(90)" x="256" y="-2333.2">Tick 7</text>
<rect id="tick_border:7:1_3:7" x="1795.2" y="176" width="544" height="160" stroke="black" fill="none"/>
<text dominant-baseline="hanging" text-anchor="middle" font-family="serif" font-size="18" transform="rotate(90)" x="432" y="-538">Tick 8</text>
<rect id="tick_border:8:2_0:8" x="0" y="352" width="544" height="160" stroke="black" fill="none"/>
<text dominant-baseline="hanging" text-anchor="middle" font-family="serif" font-size="18" transform="rotate(90)" x="432" y="-1136.4">Tick 9</text>
<rect id="tick_border:9:2_1:9" x="598.4" y="352" width="544" height="160" stroke="black" fill="none"/>
<text dominant-baseline="hanging" text-anchor="middle" font-family="serif" font-size="18" transform="rotate(90)" x="432" y="-1734.8">Tick 10</text>
<rect id="tick_border:10:2_2:10" x="1196.8" y="352" width="544" height="160" stroke="black" fill="none"/>
<text dominant-baseline="hanging" text-anchor="middle" font-family="serif" font-size="18" transform="rotate(90)" x="432" y="-2333.2">Tick 11</text>
<rect id="tick_border:11:2_3:11" x="1795.2" y="352" width="544" height="160" stroke="black" fill="none"/>
<text dominant-baseline="hanging" text-anchor="middle" font-family="serif" font-size="18" transform="rotate(90)" x="608" y="-538">Tick 12</text>
<rect id="tick_border:12:3_0:12" x="0" y="528" width="544" height="160" stroke="black" fill="none"/>
<text dominant-baseline="hanging" text-anchor="middle" font-family="serif" font-size="18" transform="rotate(90)" x="608" y="-1136.4">Tick 13</text>
<rect id="tick_border:13:3_1:13" x="598.4" y="528" width="544" height="160" stroke="black" fill="none"/>
</g>
</svg>