<svg viewBox="0 0 1440 544"  version="1.1" xmlns="http://www.w3.org/2000/svg">
<g id="qubit_lines">
<path id="qubit_line:0" d="M64,64 L1408,64 " stroke="black"/>
<text dominant-baseline="central" text-anchor="end" font-family="monospace" font-size="12" x="64" y="64">q0</text>
<path id="qubit_line:1" d="M64,128 L1408,128 " stroke="black"/>
<text dominant-baseline="central" text-anchor="end" font-family="monospace" font-size="12" x="64" y="128">q1</text>
<path id="qubit_line:2" d="M64,192 L1408,192 " stroke="black"/>
<text dominant-baseline="central" text-anchor="end" font-family="monospace" font-size="12" x="64" y="192">q2</text>
<path id="qubit_line:3" d="M64,256 L1408,256 " stroke="black"/>
<text dominant-baseline="central" text-anchor="end" font-family="monospace" font-size="12" x="64" y="256">q3</text>
<path id="qubit_line:4" d="M64,320 L1408,320 " stroke="black"/>
<text dominant-baseline="central" text-anchor="end" font-family="monospace" font-size="12" x="64" y="320">q4</text>
<path id="qubit_line:5" d="M64,384 L1408,384 " stroke="black"/>
<text dominant-baseline="central" text-anchor="end" font-family="monospace" font-size="12" x="64" y="384">q5</text>
<path id="qubit_line:6" d="M64,448 L1408,448 " stroke="black"/>
<text dominant-baseline="central" text-anchor="end" font-family="monospace" font-size="12" x="64" y="448">q6</text>
</g>
<rect x="80" y="48" width="224" height="32" stroke="black" fill="white"/>
<text dominant-baseline="central" text-anchor="middle" font-family="monospace" font-size="16" x="192" y="64">COORDS(0,0)</text>
<rect x="80" y="112" width="224" height="32" stroke="black" fill="white"/>
<text dominant-baseline="central" text-anchor="middle" font-family="monospace" font-size="16" x="192" y="128">COORDS(2,0)</text>
<rect x="80" y="176" width="224" height="32" stroke="black" fill="white"/>
<text dominant-baseline="central" text-anchor="middle" font-family="monospace" font-size="16" x="192" y="192">COORDS(0,2)</text>
<rect x="80" y="240" width="224" height="32" stroke="black" fill="white"/>
<text dominant-baseline="central" text-anchor="middle" font-family="monospace" font-size="16" x="192" y="256">COORDS(2,2)</text>
<rect x="80" y="304" width="224" height="32" stroke="black" fill="white"/>
<text dominant-baseline="central" text-anchor="middle" font-family="monospace" font-size="16" x="192" y="320">COORDS(-1,1)</text>
<rect x="80" y="368" width="224" height="32" stroke="black" fill="white"/>
<text dominant-baseline="central" text-anchor="middle" font-family="monospace" font-size="16" x="192" y="384">COORDS(1,1)</text>
<rect x="80" y="432" width="224" height="32" stroke="black" fill="white"/>
<text dominant-baseline="central" text-anchor="middle" font-family="monospace" font-size="16" x="192" y="448">COORDS(3,1)</text>
<rect x="336" y="112" width="32" height="32" stroke="black" fill="white"/>
<text dominant-baseline="central" text-anchor="middle" font-family="monospace" font-size="30" x="352" y="128">Y</text>
<rect x="336" y="240" width="32" height="32" stroke="black" fill="white"/>
<text dominant-baseline="central" text-anchor="middle" font-family="monospace" font-size="30" x="352" y="256">Y</text>
<path d="M68,40 L68,32 L380,32 L380,40 " stroke="black" fill="none"/>
<path d="M68,504 L68,512 L380,512 L380,504 " stroke="black" fill="none"/>
<rect x="400" y="48" width="32" height="32" stroke="black" fill="white"/>
<text dominant-baseline="central" text-anchor="middle" font-family="monospace" font-size="24" x="416" y="64">√Y</text>
<rect x="400" y="112" width="32" height="32" stroke="black" fill="white"/>
<text dominant-baseline="central" text-anchor="middle" font-family="monospace" font-size="24" x="416" y="128">√Y</text>
<rect x="400" y="176" width="32" height="32" stroke="black" fill="white"/>
<text dominant-baseline="central" text-anchor="middle" font-family="monospace" font-size="24" x="416" y="192">√Y</text>
<rect x="400" y="240" width="32" height="32" stroke="black" fill="white"/>
<text dominant-baseline="central" text-anchor="middle" font-family="monospace" font-size="24" x="416" y="256">√Y</text>
<rect x="464" y="368" width="32" height="32" stroke="black" fill="white"/>
<text dominant-baseline="central" text-anchor="middle" font-family="monospace" font-size="18" x="480" y="384">√Y<tspan baseline-shift="super" font-size="14">†</tspan></text>
<path d="M544,64 L544,384 " stroke="black"/>
<circle cx="544" cy="64" r="12" stroke="none" fill="black"/>
<circle cx="544" cy="384" r="12" stroke="none" fill="black"/>
<path d="M608,128 L608,384 " stroke="black"/>
<circle cx="608" cy="128" r="12" stroke="none" fill="black"/>
<circle cx="608" cy="384" r="12" stroke="none" fill="black"/>
<path d="M672,192 L672,384 " stroke="black"/>
<circle cx="672" cy="192" r="12" stroke="none" fill="black"/>
<circle cx="672" cy="384" r="12" stroke="none" fill="black"/>
<path d="M736,256 L736,384 " stroke="black"/>
<circle cx="736" cy="256" r="12" stroke="none" fill="black"/>
<circle cx="736" cy="384" r="12" stroke="none" fill="black"/>
<rect x="784" y="368" width="32" height="32" stroke="black" fill="white"/>
<text dominant-baseline="central" text-anchor="middle" font-family="monospace" font-size="24" x="800" y="384">√Y</text>
<rect x="848" y="48" width="32" height="32" stroke="black" fill="white"/>
<text dominant-baseline="central" text-anchor="middle" font-family="monospace" font-size="18" x="864" y="64">√Y<tspan baseline-shift="super" font-size="14">†</tspan></text>
<rect x="848" y="112" width="32" height="32" stroke="black" fill="white"/>
<text dominant-baseline="central" text-anchor="middle" font-family="monospace" font-size="18" x="864" y="128">√Y<tspan baseline-shift="super" font-size="14">†</tspan></text>
<rect x="848" y="176" width="32" height="32" stroke="black" fill="white"/>
<text dominant-baseline="central" text-anchor="middle" font-family="monospace" font-size="18" x="864" y="192">√Y<tspan baseline-shift="super" font-size="14">†</tspan></text>
<rect x="848" y="240" width="32" height="32" stroke="black" fill="white"/>
<text dominant-baseline="central" text-anchor="middle" font-family="monospace" font-size="18" x="864" y="256">√Y<tspan baseline-shift="super" font-size="14">†</tspan></text>
<rect x="912" y="368" width="32" height="32" stroke="black" fill="black"/>
<text dominant-baseline="central" text-anchor="middle" font-family="monospace" font-size="30" x="928" y="384" fill="white">M</text>
<text text-anchor="middle" font-family="monospace" font-size="8" x="928" y="364">rec[0]</text>
<rect x="976" y="304" width="32" height="32" stroke="black" fill="white"/>
<text dominant-baseline="central" text-anchor="middle" font-family="monospace" font-size="18" x="992" y="320">√Y<tspan baseline-shift="super" font-size="14">†</tspan></text>
<rect x="976" y="432" width="32" height="32" stroke="black" fill="white"/>
<text dominant-baseline="central" text-anchor="middle" font-family="monospace" font-size="18" x="992" y="448">√Y<tspan baseline-shift="super" font-size="14">†</tspan></text>
<path d="M1056,192 L1056,320 " stroke="black"/>
<circle cx="1056" cy="192" r="12" stroke="none" fill="black"/>
<circle cx="1056" cy="320" r="12" stroke="none" fill="black"/>
<path d="M1120,128 L1120,448 " stroke="black"/>
<circle cx="1120" cy="128" r="12" stroke="none" fill="black"/>
<circle cx="1120" cy="448" r="12" stroke="none" fill="black"/>
<path d="M1028,40 L1028,32 L1148,32 L1148,40 " stroke="black" fill="none"/>
<path d="M1028,504 L1028,512 L1148,512 L1148,504 " stroke="black" fill="none"/>
<path d="M1184,64 L1184,320 " stroke="black"/>
<circle cx="1184" cy="64" r="12" stroke="none" fill="black"/>
<circle cx="1184" cy="320" r="12" stroke="none" fill="black"/>
<path d="M1248,256 L1248,448 " stroke="black"/>
<circle cx="1248" cy="256" r="12" stroke="none" fill="black"/>
<circle cx="1248" cy="448" r="12" stroke="none" fill="black"/>
<path d="M1156,40 L1156,32 L1276,32 L1276,40 " stroke="black" fill="none"/>
<path d="M1156,504 L1156,512 L1276,512 L1276,504 " stroke="black" fill="none"/>
<rect x="1296" y="304" width="32" height="32" stroke="black" fill="white"/>
<text dominant-baseline="central" text-anchor="middle" font-family="monospace" font-size="24" x="1312" y="320">√Y</text>
<rect x="1296" y="432" width="32" height="32" stroke="black" fill="white"/>
<text dominant-baseline="central" text-anchor="middle" font-family="monospace" font-size="24" x="1312" y="448">√Y</text>
<rect x="1360" y="304" width="32" height="32" stroke="black" fill="black"/>
<text dominant-baseline="central" text-anchor="middle" font-family="monospace" font-size="30" x="1376" y="320" fill="white">M</text>
<text text-anchor="middle" font-family="monospace" font-size="8" x="1376" y="300">rec[1]</text>
<rect x="1360" y="432" width="32" height="32" stroke="black" fill="black"/>
<text dominant-baseline="central" text-anchor="middle" font-family="monospace" font-size="30" x="1376" y="448" fill="white">M</text>
<text text-anchor="middle" font-family="monospace" font-size="8" x="1376" y="428">rec[2]</text>
</svg>