<svg viewBox="0 0 431.529 431.529"  version="1.1" xmlns="http://www.w3.org/2000/svg">
<g id="qubit_dots">
<circle id="qubit_dot:1:1_1:6" cx="125.255" cy="125.255" r="2" stroke="none" fill="black"/>
<circle id="qubit_dot:2:2_0:6" cx="170.51" cy="80" r="2" stroke="none" fill="black"/>
<circle id="qubit_dot:3:3_1:6" cx="215.764" cy="125.255" r="2" stroke="none" fill="black"/>
<circle id="qubit_dot:5:5_1:6" cx="306.274" cy="125.255" r="2" stroke="none" fill="black"/>
<circle id="qubit_dot:8:1_3:6" cx="125.255" cy="215.764" r="2" stroke="none" fill="black"/>
<circle id="qubit_dot:9:2_2:6" cx="170.51" cy="170.51" r="2" stroke="none" fill="black"/>
<circle id="qubit_dot:10:3_3:6" cx="215.764" cy="215.764" r="2" stroke="none" fill="black"/>
<circle id="qubit_dot:11:4_2:6" cx="261.019" cy="170.51" r="2" stroke="none" fill="black"/>
<circle id="qubit_dot:12:5_3:6" cx="306.274" cy="215.764" r="2" stroke="none" fill="black"/>
<circle id="qubit_dot:13:6_2:6" cx="351.529" cy="170.51" r="2" stroke="none" fill="black"/>
<circle id="qubit_dot:14:0_4:6" cx="80" cy="261.019" r="2" stroke="none" fill="black"/>
<circle id="qubit_dot:15:1_5:6" cx="125.255" cy="306.274" r="2" stroke="none" fill="black"/>
<circle id="qubit_dot:16:2_4:6" cx="170.51" cy="261.019" r="2" stroke="none" fill="black"/>
<circle id="qubit_dot:17:3_5:6" cx="215.764" cy="306.274" r="2" stroke="none" fill="black"/>
<circle id="qubit_dot:18:4_4:6" cx="261.019" cy="261.019" r="2" stroke="none" fill="black"/>
<circle id="qubit_dot:19:5_5:6" cx="306.274" cy="306.274" r="2" stroke="none" fill="black"/>
<circle id="qubit_dot:25:4_6:6" cx="261.019" cy="351.529" r="2" stroke="none" fill="black"/>
</g>
<rect x="154.51" y="64" width="32" height="32" stroke="black" fill="white"/>
<text dominant-baseline="central" text-anchor="middle" font-family="monospace" font-size="30" x="170.51" y="80">H</text>
<rect x="245.019" y="154.51" width="32" height="32" stroke="black" fill="white"/>
<text dominant-baseline="central" text-anchor="middle" font-family="monospace" font-size="30" x="261.019" y="170.51">H</text>
<rect x="154.51" y="245.019" width="32" height="32" stroke="black" fill="white"/>
<text dominant-baseline="central" text-anchor="middle" font-family="monospace" font-size="30" x="170.51" y="261.019">H</text>
<rect x="245.019" y="335.529" width="32" height="32" stroke="black" fill="white"/>
<text dominant-baseline="central" text-anchor="middle" font-family="monospace" font-size="30" x="261.019" y="351.529">H</text>
</svg>