<svg viewBox="0 0 431.529 431.529"  version="1.1" xmlns="http://www.w3.org/2000/svg">
<g id="qubit_dots">
<circle id="qubit_dot:1:1_1:14" cx="125.255" cy="125.255" r="2" stroke="none" fill="black"/>
<circle id="qubit_dot:2:2_0:14" cx="170.51" cy="80" r="2" stroke="none" fill="black"/>
<circle id="qubit_dot:3:3_1:14" cx="215.764" cy="125.255" r="2" stroke="none" fill="black"/>
<circle id="qubit_dot:5:5_1:14" cx="306.274" cy="125.255" r="2" stroke="none" fill="black"/>
<circle id="qubit_dot:8:1_3:14" cx="125.255" cy="215.764" r="2" stroke="none" fill="black"/>
<circle id="qubit_dot:9:2_2:14" cx="170.51" cy="170.51" r="2" stroke="none" fill="black"/>
<circle id="qubit_dot:10:3_3:14" cx="215.764" cy="215.764" r="2" stroke="none" fill="black"/>
<circle id="qubit_dot:11:4_2:14" cx="261.019" cy="170.51" r="2" stroke="none" fill="black"/>
<circle id="qubit_dot:12:5_3:14" cx="306.274" cy="215.764" r="2" stroke="none" fill="black"/>
<circle id="qubit_dot:13:6_2:14" cx="351.529" cy="170.51" r="2" stroke="none" fill="black"/>
<circle id="qubit_dot:14:0_4:14" cx="80" cy="261.019" r="2" stroke="none" fill="black"/>
<circle id="qubit_dot:15:1_5:14" cx="125.255" cy="306.274" r="2" stroke="none" fill="black"/>
<circle id="qubit_dot:16:2_4:14" cx="170.51" cy="261.019" r="2" stroke="none" fill="black"/>
<circle id="qubit_dot:17:3_5:14" cx="215.764" cy="306.274" r="2" stroke="none" fill="black"/>
<circle id="qubit_dot:18:4_4:14" cx="261.019" cy="261.019" r="2" stroke="none" fill="black"/>
<circle id="qubit_dot:19:5_5:14" cx="306.274" cy="306.274" r="2" stroke="none" fill="black"/>
<circle id="qubit_dot:25:4_6:14" cx="261.019" cy="351.529" r="2" stroke="none" fill="black"/>
</g>
<rect x="154.51" y="64" width="32" height="32" stroke="black" fill="black"/>
<text dominant-baseline="central" text-anchor="middle" font-family="monospace" font-size="24" x="170.51" y="80" fill="white">MR</text>
<rect x="154.51" y="154.51" width="32" height="32" stroke="black" fill="black"/>
<text dominant-baseline="central" text-anchor="middle" font-family="monospace" font-size="24" x="170.51" y="170.51" fill="white">MR</text>
<rect x="245.019" y="154.51" width="32" height="32" stroke="black" fill="black"/>
<text dominant-baseline="central" text-anchor="middle" font-family="monospace" font-size="24" x="261.019" y="170.51" fill="white">MR</text>
<rect x="335.529" y="154.51" width="32" height="32" stroke="black" fill="black"/>
<text dominant-baseline="central" text-anchor="middle" font-family="monospace" font-size="24" x="351.529" y="170.51" fill="white">MR</text>
<rect x="64" y="245.019" width="32" height="32" stroke="black" fill="black"/>
<text dominant-baseline="central" text-anchor="middle" font-family="monospace" font-size="24" x="80" y="261.019" fill="white">MR</text>
<rect x="154.51" y="245.019" width="32" height="32" stroke="black" fill="black"/>
<text dominant-baseline="central" text-anchor="middle" font-family="monospace" font-size="24" x="170.51" y="261.019" fill="white">MR</text>
<rect x="245.019" y="245.019" width="32" height="32" stroke="black" fill="black"/>
<text dominant-baseline="central" text-anchor="middle" font-family="monospace" font-size="24" x="261.019" y="261.019" fill="white">MR</text>
<rect x="245.019" y="335.529" width="32" height="32" stroke="black" fill="black"/>
<text dominant-baseline="central" text-anchor="middle" font-family="monospace" font-size="24" x="261.019" y="351.529" fill="white">MR</text>
<rect x="109.255" y="109.255" width="32" height="32" stroke="black" fill="black"/>
<text dominant-baseline="central" text-anchor="middle" font-family="monospace" font-size="30" x="125.255" y="125.255" fill="white">M</text>
<rect x="199.764" y="109.255" width="32" height="32" stroke="black" fill="black"/>
<text dominant-baseline="central" text-anchor="middle" font-family="monospace" font-size="30" x="215.764" y="125.255" fill="white">M</text>
<rect x="290.274" y="109.255" width="32" height="32" stroke="black" fill="black"/>
<text dominant-baseline="central" text-anchor="middle" font-family="monospace" font-size="30" x="306.274" y="125.255" fill="white">M</text>
<rect x="109.255" y="199.764" width="32" height="32" stroke="black" fill="black"/>
<text dominant-baseline="central" text-anchor="middle" font-family="monospace" font-size="30" x="125.255" y="215.764" fill="white">M</text>
<rect x="199.764" y="199.764" width="32" height="32" stroke="black" fill="black"/>
<text dominant-baseline="central" text-anchor="middle" font-family="monospace" font-size="30" x="215.764" y="215.764" fill="white">M</text>
<rect x="290.274" y="199.764" width="32" height="32" stroke="black" fill="black"/>
<text dominant-baseline="central" text-anchor="middle" font-family="monospace" font-size="30" x="306.274" y="215.764" fill="white">M</text>
<rect x="109.255" y="290.274" width="32" height="32" stroke="black" fill="black"/>
<text dominant-baseline="central" text-anchor="middle" font-family="monospace" font-size="30" x="125.255" y="306.274" fill="white">M</text>
<rect x="199.764" y="290.274" width="32" height="32" stroke="black" fill="black"/>
<text dominant-baseline="central" text-anchor="middle" font-family="monospace" font-size="30" x="215.764" y="306.274" fill="white">M</text>
<rect x="290.274" y="290.274" width="32" height="32" stroke="black" fill="black"/>
<text dominant-baseline="central" text-anchor="middle" font-family="monospace" font-size="30" x="306.274" y="306.274" fill="white">M</text>
</svg>